<?xml version="1.0" encoding="utf-8"?>
<!-- Generator: Adobe Illustrator 24.1.2, SVG Export Plug-In . SVG Version: 6.00 Build 0)  -->
<svg version="1.1" id="Ebene_1" xmlns="http://www.w3.org/2000/svg" xmlns:xlink="http://www.w3.org/1999/xlink" x="0px" y="0px"
	 viewBox="0 0 1200 1200" style="enable-background:new 0 0 1200 1200;" xml:space="preserve">
<style type="text/css">
	.st0{fill:#FFFFFF;}
</style>
<path class="st0" d="M1076.73,289.45c-62.75-66.29-287.3-73.45-380.9-73.45c-44.72,0-75.38,1.52-89.66,2.4
	c-16.34,1.02-401.25,25.76-487.23,128.48c-41.27,49.29-17.68,155.48-0.47,233.04c5.09,22.93,52,226.48,130.83,311.25
	c55,59.09,168.36,93.01,311,93.01c26.79,0,54.47-1.26,82.23-3.73c171.32-15.13,330.67-71.27,375.27-104.29
	c39.41-29.12,53.36-117.2,63.58-181.49c1.69-10.71,3.24-20.58,4.78-29.11C1093.07,627.21,1128.6,344.19,1076.73,289.45
	 M1076.16,662.63c-1.54,8.63-3.12,18.6-4.81,29.45c-9.2,58.06-23.1,137.47-57.11,162.61c-43.1,31.88-204.78,86.23-373.15,101.14
	c-27.29,2.42-54.47,3.64-80.78,3.64c-136.06,0-222.69-32.82-273.82-87.78c-61.61-66.22-108.69-213.73-126.81-295.32
	c-16.48-74.21-39.03-175.83-2.98-218.89c81.47-97.34,446.56-122.38,450.49-122.62c24.02-1.52,56.33-2.38,88.65-2.38
	c71.36,0,315.16,4.93,375.15,68.29C1111.6,343.64,1088.72,592.88,1076.16,662.63"/>
<path class="st0" d="M490.53,361.3c29.24,0,48.07,4.87,56.49,14.58c8.42,9.71,12.63,31.42,12.63,65.16
	c0,36.87-4.24,60.09-12.68,69.7c-8.45,9.59-28.92,14.39-61.39,14.39c-29.26,0-48.17-4.74-56.73-14.22
	c-8.57-9.49-12.87-30.33-12.87-62.58c0-38.37,4.21-62.46,12.63-72.29C437.03,366.22,457.66,361.3,490.53,361.3 M488.17,387.49
	c-20.51,0-32.5,2.64-35.97,7.9c-3.47,5.26-5.19,23.52-5.19,54.73c0,23.12,2.02,37.03,6.07,41.75c4.05,4.71,15.99,7.07,35.8,7.07
	c18.94,0,30.31-2.66,34.09-7.95c3.76-5.31,5.66-21.41,5.66-48.31c0-26.97-1.79-42.91-5.37-47.83
	C519.67,389.96,507.97,387.49,488.17,387.49"/>
<path class="st0" d="M583.56,410.97h27.48l-1.07,16.74l0.59,0.12c6.54-12.18,18.69-18.27,36.46-18.27c16.42,0,27.73,4.07,33.92,12.2
	c6.16,8.14,9.25,22.98,9.25,44.53c0,22.48-3.07,37.9-9.21,46.22c-6.12,8.33-17.49,12.51-34.07,12.51c-17.68,0-29.24-5.9-34.68-17.68
	h-0.47v64.75h-28.19V410.97z M636.75,430.89c-10.3,0-17.03,2.31-20.17,6.95c-3.14,4.64-4.71,14.48-4.71,29.49
	c0,14.63,1.69,24.34,5.07,29.14c3.36,4.8,10.25,7.19,20.63,7.19c10.54,0,17.37-2.29,20.51-6.85c3.14-4.55,4.73-14.34,4.73-29.36
	c0-15.41-1.6-25.36-4.78-29.83C654.85,433.14,647.76,430.89,636.75,430.89"/>
<path class="st0" d="M792.48,410.96v20.51h-43.41v56.62c0,10.46,3.99,15.68,11.92,15.68c8.73,0,13.1-6.33,13.1-19v-4.47h23v5.66
	c0,5.18-0.16,9.63-0.48,13.32c-1.5,17.22-14.3,25.83-38.44,25.83c-24.07,0-36.09-11.04-36.09-33.14v-60.51h-14.63v-20.51h14.63
	v-25.24h27v25.24H792.48z"/>
<path class="st0" d="M845.24,385.25h-27v-22.53h27V385.25z M845.24,523.72h-27V410.97h27V523.72z"/>
<polygon class="st0" points="901.43,362.72 901.43,454.84 908.38,454.84 938.81,410.96 970.18,410.96 930.91,464.03 978.2,523.71 
	944.71,523.71 908.03,473.71 901.43,473.71 901.43,523.71 874.42,523.71 874.42,362.72 "/>
<polygon class="st0" points="466.32,648.78 466.32,782.41 435.77,782.41 435.77,648.78 389.31,648.78 389.31,621.42 514.44,621.42 
	514.44,648.78 "/>
<path class="st0" d="M535.64,702.32h-27.6c0-13.53,3.16-22.55,9.44-27.12c6.3-4.57,18.75-6.85,37.39-6.85
	c20.29,0,34.02,2.81,41.17,8.39c7.16,5.57,10.73,16.24,10.73,31.95v73.72h-27l1.29-15.46l-0.71-0.12
	c-5.19,11.25-17.18,16.87-35.97,16.87c-27.29,0-40.92-11.59-40.92-34.8c0-23.43,13.96-35.14,41.87-35.14
	c18.63,0,29.95,4.28,33.95,12.85h0.48v-18.27c0-8.82-1.54-14.65-4.61-17.53c-3.07-2.86-9.35-4.3-18.87-4.3
	C542.52,686.52,535.64,691.8,535.64,702.32 M553.69,731.93c-15.25,0-22.88,5.28-22.88,15.8c0,7.32,1.57,12.11,4.71,14.39
	c3.14,2.28,9.75,3.42,19.82,3.42c16.42,0,24.64-5.54,24.64-16.63C579.98,737.59,571.21,731.93,553.69,731.93"/>
<path class="st0" d="M704.03,739.36h26.9v3.9l-1.66,17.1c-3.31,15.56-19.43,23.34-48.36,23.34c-21.22,0-35.33-3.81-42.34-11.51
	c-7-7.64-10.49-23.08-10.49-46.27c0-22.65,3.49-37.9,10.49-45.77c7-7.87,20.6-11.78,40.8-11.78c19.5,0,32.71,2.85,39.63,8.54
	c6.94,5.71,10.39,16.55,10.39,32.5h-26.78c0-13.13-7.57-19.7-22.76-19.7c-10.78,0-17.53,2.09-20.29,6.25
	c-2.76,4.18-4.12,14.39-4.12,30.68c0,15.72,1.5,25.6,4.54,29.66c3.02,4.05,10.44,6.07,22.22,6.07c9.28,0,15.23-1.4,17.87-4.18
	C702.72,755.39,704.03,749.11,704.03,739.36"/>
<polygon class="st0" points="777.25,621.42 777.25,713.53 784.2,713.53 814.64,669.66 846,669.66 806.74,722.73 854.03,782.41 
	820.54,782.41 783.86,732.41 777.25,732.41 777.25,782.41 750.25,782.41 750.25,621.42 "/>
</svg>
